<svg width="2278" height="2500" viewBox="0 0 2278 2500" fill="none" xmlns="http://www.w3.org/2000/svg" xmlns:xlink="http://www.w3.org/1999/xlink">
<path d="M2156,1088C2156,1688.886 1673.362,2176 1078,2176C482.638,2176 0,1688.886 0,1088C0,487.114 482.638,0 1078,0C1673.362,0 2156,487.114 2156,1088Z" fill="url(#pattern_0_61_83)"/>
<path d="M2278,2196C2278,2363.894 2145.476,2500 1982,2500C1818.524,2500 1686,2363.894 1686,2196C1686,2028.105 1818.524,1892 1982,1892C2145.476,1892 2278,2028.105 2278,2196Z" fill="#4BCF40"/>
<path d="M1981.326,2030.869L2147.602,2279.869L1815.049,2279.869L1981.326,2030.869Z" transform="rotate(182 1981.326 2196.869)" fill="#000000"/>
</svg>
