<svg width="2156" height="2528" viewBox="0 0 2156 2528" fill="none" xmlns="http://www.w3.org/2000/svg" xmlns:xlink="http://www.w3.org/1999/xlink">
<path d="M2156,1088C2156,1688.886 1673.362,2176 1078,2176C482.638,2176 0,1688.886 0,1088C0,487.114 482.638,0 1078,0C1673.362,0 2156,487.114 2156,1088Z" fill="url(#pattern_0_61_66)"/>
<path d="M2156,2224C2156,2391.894 2023.476,2528 1860,2528C1696.524,2528 1564,2391.894 1564,2224C1564,2056.105 1696.524,1920 1860,1920C2023.476,1920 2156,2056.105 2156,2224Z" fill="#4BCF40"/>
<path d="M1859.326,2058.869L2025.602,2307.869L1693.049,2307.869L1859.326,2058.869Z" transform="rotate(182 1859.326 2224.869)" fill="#000000"/>
</svg>
