<svg width="2200" height="2476" viewBox="0 0 2200 2476" fill="none" xmlns="http://www.w3.org/2000/svg" xmlns:xlink="http://www.w3.org/1999/xlink">
<path d="M2156,1088C2156,1688.886 1673.362,2176 1078,2176C482.638,2176 0,1688.886 0,1088C0,487.114 482.638,0 1078,0C1673.362,0 2156,487.114 2156,1088Z" fill="url(#pattern_0_61_73)"/>
<path d="M2200,2172C2200,2339.894 2067.476,2476 1904,2476C1740.524,2476 1608,2339.894 1608,2172C1608,2004.105 1740.524,1868 1904,1868C2067.476,1868 2200,2004.105 2200,2172Z" fill="#4BCF40"/>
<path d="M1903.326,2006.869L2069.602,2255.869L1737.049,2255.869L1903.326,2006.869Z" transform="rotate(182 1903.326 2172.869)" fill="#000000"/>
</svg>
