<svg width="576" height="692" viewBox="0 0 576 692" fill="none" xmlns="http://www.w3.org/2000/svg" xmlns:xlink="http://www.w3.org/1999/xlink">
<path d="M249.611,0.038C111.845,0.038 -0.225,134.765 -0.225,300.386C-0.225,466.006 111.845,600.734 249.611,600.734C291.727,600.734 333.129,588.72 368.105,565.55C370.907,569.604 374.013,573.338 377.385,576.706L448.767,662.52C455.359,671.436 463.395,678.638 472.387,683.686C481.377,688.732 491.131,691.516 501.049,691.868C510.967,692.218 520.839,690.128 530.061,685.726C539.283,681.324 547.659,674.702 554.675,666.268C561.691,657.834 567.199,647.764 570.861,636.678C574.523,625.592 576.261,613.722 575.969,601.8C575.677,589.876 573.361,578.152 569.163,567.342C564.965,556.534 558.973,546.872 551.557,538.948L480.175,453.134C476.699,448.954 472.871,445.214 468.755,441.978C488.027,399.93 500.163,351.016 500.163,299.528C500.163,133.907 388.093,-0.82 250.325,-0.82L249.611,0.038ZM249.611,85.851C348.833,85.851 428.067,181.105 428.067,300.386C428.067,357.024 410.935,409.37 380.955,447.986C380.241,448.844 379.527,449.702 378.813,450.56C375.441,453.928 372.335,457.662 369.533,461.716C338.125,496.042 295.297,515.778 248.897,515.778C149.677,515.778 70.443,420.526 70.443,301.244C70.443,181.963 149.677,86.71 248.897,86.71L249.611,85.851Z" fill="#FFFFFF"/>
</svg>
