<svg width="600" height="600" viewBox="0 0 600 600" fill="none" xmlns="http://www.w3.org/2000/svg" xmlns:xlink="http://www.w3.org/1999/xlink">
<path d="M450,0L450,75L412.5,75C386.25,75 370.5,82.5 354,103.5L248.25,237L133.5,103.5C117,84 100.5,75 75,75L0,75L0,150L75,150C71.25,150 75.75,153 77.25,152.25L199.5,295.5L75,450L0,450L0,525L75,525C101.25,525 117,517.5 133.5,496.5L248.25,353.25L372.75,496.5C389.25,516 405.75,525 431.25,525L450,525L450,600L600,487.5L450,375L450,450L433.5,450C432.75,449.25 429.75,447 429,447.75L297.75,293.25L412.5,150L450,150L450,225L600,112.5L450,0Z" fill="#E5DDDD"/>
</svg>
